<?xml version="1.0" standalone="no"?>
<!DOCTYPE svg PUBLIC "-//W3C//DTD SVG 20010904//EN"
 "http://www.w3.org/TR/2001/REC-SVG-20010904/DTD/svg10.dtd">
<svg version="1.0" xmlns="http://www.w3.org/2000/svg"
 width="130.000000pt" height="130.000000pt" viewBox="0 0 130.000000 130.000000"
 preserveAspectRatio="xMidYMid meet">

<g transform="translate(0.000000,130.000000) scale(0.100000,-0.100000)"
fill="#000000" stroke="none">
<path d="M340 1280 c-9 -17 -8 -27 4 -45 13 -20 16 -55 16 -180 l0 -155 78 0
c96 0 163 -28 206 -86 49 -65 43 -64 243 -64 l183 0 0 120 0 120 -75 0 -75 0
0 75 c0 43 -4 75 -10 75 -5 0 -10 23 -10 50 0 43 -3 50 -20 50 -17 0 -20 -7
-20 -44 0 -25 -4 -48 -10 -51 -6 -3 -10 -40 -10 -81 0 -50 -4 -74 -11 -72 -15
5 -14 215 1 233 6 8 10 26 8 42 l-3 28 -242 3 c-237 2 -242 2 -253 -18z m478
-17 l3 -23 -229 0 c-186 0 -231 3 -235 14 -13 33 14 36 238 34 220 -3 220 -3
223 -25z m-258 -199 l0 -156 -27 6 c-16 3 -56 8 -90 11 l-63 7 0 137 c0 76 3
141 7 144 3 4 44 7 90 7 l83 0 0 -156z m40 1 c0 -97 -4 -155 -10 -155 -6 0
-10 58 -10 155 0 97 4 155 10 155 6 0 10 -58 10 -155z m190 42 l0 -113 -32 -9
c-25 -8 -35 -18 -43 -42 -8 -31 -12 -33 -52 -33 l-43 0 0 155 0 155 85 0 85 0
0 -113z m102 -52 c-3 -48 -7 -65 -18 -65 -11 0 -14 16 -14 65 0 55 3 65 18 65
15 0 17 -8 14 -65z m-12 -95 c0 -6 -27 -10 -60 -10 -75 0 -79 -18 -5 -22 30
-2 55 -7 55 -13 0 -5 -25 -11 -55 -13 -71 -4 -72 -22 -1 -22 73 0 82 -18 11
-22 -71 -4 -72 -22 0 -26 30 -2 55 -7 55 -12 0 -5 -25 -10 -55 -12 -72 -4 -75
-21 -5 -29 l55 -6 -72 -1 -73 -2 0 90 c0 74 3 91 18 99 22 13 132 14 132 1z
m170 -90 l0 -100 -77 0 c-60 0 -74 3 -65 12 16 16 15 28 -3 28 -8 0 -15 5 -15
10 0 6 7 10 15 10 21 0 19 30 -2 30 -16 1 -16 2 1 15 20 15 20 15 0 29 -18 14
-18 15 -1 21 21 9 23 25 2 25 -8 0 -15 5 -15 10 0 6 33 10 80 10 l80 0 0 -100z
m-340 -39 c0 -34 -4 -61 -8 -61 -4 0 -15 13 -25 29 -9 16 -31 41 -47 55 -17
13 -30 26 -30 29 0 2 25 5 55 6 l55 2 0 -60z"/>
<path d="M0 1185 c0 -9 5 -13 10 -10 24 15 68 -159 88 -350 12 -109 1 -148
-50 -169 -18 -8 -36 -12 -40 -10 -5 3 -8 1 -8 -4 0 -6 7 -12 15 -16 21 -8 21
-124 0 -132 -8 -4 -15 -15 -15 -27 0 -19 1 -19 18 -4 38 35 102 5 102 -48 0
-29 -32 -65 -58 -65 -10 0 -28 7 -41 16 -22 16 -23 15 -19 -2 2 -10 16 -23 31
-28 39 -14 79 3 97 41 8 18 22 33 30 33 8 0 42 -14 75 -30 54 -28 66 -30 121
-25 45 5 82 1 145 -15 46 -12 87 -25 91 -28 4 -4 -44 -33 -105 -65 -121 -62
-244 -149 -297 -209 -28 -34 -30 -38 -12 -38 11 0 27 11 35 24 30 45 178 146
320 217 78 39 143 72 145 74 2 2 -28 11 -67 21 -39 10 -71 21 -71 24 1 3 17
15 37 28 36 23 36 23 57 3 34 -32 67 -39 160 -37 69 2 92 7 114 23 89 66 105
199 35 292 -37 49 -73 59 -185 56 l-97 -2 -12 28 c-14 35 -80 97 -111 104 -13
3 -82 4 -155 3 l-132 -3 -40 -39 c-86 -84 -112 -229 -59 -335 21 -43 22 -51 9
-51 -9 0 -24 14 -33 30 -11 20 -28 33 -48 36 -30 6 -30 7 -30 69 0 56 3 64 26
80 47 31 57 75 44 189 -17 142 -46 280 -67 324 -19 39 -53 56 -53 27z m378
-350 c47 -20 79 -50 105 -100 17 -32 22 -57 22 -125 0 -98 -19 -145 -79 -198
-119 -104 -278 9 -279 198 0 128 78 232 181 239 7 1 29 -6 50 -14z m157 -4
c44 -20 74 -50 97 -95 15 -28 14 -31 -15 -73 -36 -50 -47 -136 -27 -198 11
-32 10 -38 -7 -51 -37 -30 -83 -45 -119 -38 l-35 7 29 31 c46 48 65 95 70 172
6 88 -14 154 -63 212 -30 35 -33 41 -18 45 33 9 48 7 88 -12z m238 -136 c54
-26 81 -77 81 -154 0 -100 -39 -156 -117 -167 -70 -11 -136 71 -137 166 0 63
35 130 80 152 43 22 53 22 93 3z m115 -5 c62 -38 93 -122 72 -199 -15 -56 -63
-109 -106 -117 -42 -8 -52 -1 -30 21 66 67 71 201 11 273 -14 17 -25 33 -25
36 0 13 47 5 78 -14z"/>
<path d="M302 648 c-17 -17 -15 -63 3 -78 17 -14 47 -10 53 8 2 7 -2 10 -11 7
-20 -8 -40 21 -35 50 6 29 6 29 -10 13z"/>
<path d="M731 552 c-1 -35 22 -53 42 -33 8 8 7 11 -5 11 -9 0 -21 12 -26 28
l-10 27 -1 -33z"/>
<path d="M958 724 c-15 -5 -13 -11 10 -57 39 -74 39 -179 -1 -257 l-28 -55
-109 -34 c-208 -65 -470 -203 -555 -291 -49 -51 -6 -35 80 31 154 116 520 269
692 289 40 4 79 13 87 19 7 6 47 16 89 23 51 8 77 16 77 25 0 7 -4 13 -10 13
-6 0 -10 38 -10 94 0 53 4 98 10 101 6 3 10 24 10 45 0 29 -5 42 -21 50 -47
26 -96 -55 -54 -90 11 -10 15 -35 15 -110 l0 -98 -27 -5 c-16 -3 -29 -4 -31
-3 -1 2 5 19 13 39 33 79 10 192 -49 247 -23 21 -38 25 -99 27 -40 1 -80 -1
-89 -3z m176 -45 c58 -51 74 -156 35 -236 -26 -55 -61 -73 -139 -73 l-60 0 22
43 c18 34 22 58 22 127 0 69 -4 93 -22 128 l-22 42 64 0 c59 0 69 -3 100 -31z
m144 19 c27 -27 2 -75 -32 -62 -26 10 -15 74 14 74 3 0 11 -5 18 -12z"/>
<path d="M1205 355 c-227 -54 -471 -159 -611 -263 -93 -70 -115 -92 -91 -92 8
0 54 29 102 65 143 108 345 198 574 256 121 31 125 33 120 47 -2 4 -44 -1 -94
-13z"/>
<path d="M1174 300 c-219 -57 -419 -146 -555 -247 -46 -34 -59 -48 -46 -51 9
-2 34 10 55 26 132 102 370 205 595 258 48 11 77 23 77 31 0 17 4 17 -126 -17z"/>
<path d="M1210 205 c-111 -41 -188 -81 -280 -146 -49 -35 -69 -55 -58 -57 9
-2 47 18 84 43 79 54 196 114 274 140 61 21 74 29 69 42 -2 5 -42 -5 -89 -22z"/>
<path d="M1195 151 c-90 -37 -197 -95 -243 -132 -23 -17 -23 -19 -5 -19 11 0
56 22 100 48 44 27 119 64 167 82 47 19 86 40 86 47 0 18 -2 17 -105 -26z"/>
<path d="M1235 42 c-48 -30 -56 -38 -38 -40 27 -4 103 43 103 63 0 8 -1 15 -2
14 -2 0 -30 -17 -63 -37z"/>
<path d="M1270 10 c-12 -8 -11 -10 8 -10 12 0 22 5 22 10 0 13 -11 13 -30 0z"/>
</g>
</svg>
