<?xml version="1.0" encoding="UTF-8"?>
<svg version="1.1" xmlns="http://www.w3.org/2000/svg" width="130" height="130">
<path d="M0 0 C1.65 0 3.3 0 5 0 C5 4.62 5 9.24 5 14 C6.98 14 8.96 14 11 14 C11 9.38 11 4.76 11 0 C12.65 0 14.3 0 16 0 C16 4.62 16 9.24 16 14 C17.98 14 19.96 14 22 14 C22 9.38 22 4.76 22 0 C23.65 0 25.3 0 27 0 C27 4.62 27 9.24 27 14 C28.65 14 30.3 14 32 14 C32 9.38 32 4.76 32 0 C33.98 0 35.96 0 38 0 C38 4.62 38 9.24 38 14 C39.65 14 41.3 14 43 14 C43 9.38 43 4.76 43 0 C44.65 0 46.3 0 48 0 C48 4.62 48 9.24 48 14 C49.98 14 51.96 14 54 14 C54 9.38 54 4.76 54 0 C55.65 0 57.3 0 59 0 C59 4.62 59 9.24 59 14 C60.98 14 62.96 14 65 14 C65 9.38 65 4.76 65 0 C66.65 0 68.3 0 70 0 C70 4.62 70 9.24 70 14 C71.8975 13.9175 73.795 13.835 75.75 13.75 C79.43468342 13.58979637 81.30483518 13.52436091 84.375 15.625 C87.38523642 20.02457631 86.224606 24.8340621 86 30 C90.62 30 95.24 30 100 30 C100 31.65 100 33.3 100 35 C95.38 35 90.76 35 86 35 C86 36.98 86 38.96 86 41 C90.62 41 95.24 41 100 41 C100 42.65 100 44.3 100 46 C95.38 46 90.76 46 86 46 C86 47.98 86 49.96 86 52 C90.62 52 95.24 52 100 52 C100 53.65 100 55.3 100 57 C95.38 57 90.76 57 86 57 C86 58.65 86 60.3 86 62 C90.62 62 95.24 62 100 62 C100 63.98 100 65.96 100 68 C95.38 68 90.76 68 86 68 C86 69.65 86 71.3 86 73 C90.62 73 95.24 73 100 73 C100 74.65 100 76.3 100 78 C95.38 78 90.76 78 86 78 C86 79.98 86 81.96 86 84 C90.62 84 95.24 84 100 84 C100 85.65 100 87.3 100 89 C95.38 89 90.76 89 86 89 C86 90.98 86 92.96 86 95 C90.62 95 95.24 95 100 95 C100 96.65 100 98.3 100 100 C95.38 100 90.76 100 86 100 C86.0825 101.8975 86.165 103.795 86.25 105.75 C86.41020363 109.43468342 86.47563909 111.30483518 84.375 114.375 C79.97542369 117.38523642 75.1659379 116.224606 70 116 C70 120.62 70 125.24 70 130 C68.35 130 66.7 130 65 130 C65 125.38 65 120.76 65 116 C63.02 116 61.04 116 59 116 C59 120.62 59 125.24 59 130 C57.35 130 55.7 130 54 130 C54 125.38 54 120.76 54 116 C52.02 116 50.04 116 48 116 C48 120.62 48 125.24 48 130 C46.35 130 44.7 130 43 130 C43 125.38 43 120.76 43 116 C41.35 116 39.7 116 38 116 C38 120.62 38 125.24 38 130 C36.02 130 34.04 130 32 130 C32 125.38 32 120.76 32 116 C30.35 116 28.7 116 27 116 C27 120.62 27 125.24 27 130 C25.35 130 23.7 130 22 130 C22 125.38 22 120.76 22 116 C20.02 116 18.04 116 16 116 C16 120.62 16 125.24 16 130 C14.35 130 12.7 130 11 130 C11 125.38 11 120.76 11 116 C9.02 116 7.04 116 5 116 C5 120.62 5 125.24 5 130 C3.35 130 1.7 130 0 130 C0 125.38 0 120.76 0 116 C-1.8975 116.0825 -3.795 116.165 -5.75 116.25 C-9.43468342 116.41020363 -11.30483518 116.47563909 -14.375 114.375 C-17.38523642 109.97542369 -16.224606 105.1659379 -16 100 C-20.62 100 -25.24 100 -30 100 C-30 98.35 -30 96.7 -30 95 C-25.38 95 -20.76 95 -16 95 C-16 93.02 -16 91.04 -16 89 C-20.62 89 -25.24 89 -30 89 C-30 87.35 -30 85.7 -30 84 C-25.38 84 -20.76 84 -16 84 C-16 82.02 -16 80.04 -16 78 C-20.62 78 -25.24 78 -30 78 C-30 76.35 -30 74.7 -30 73 C-25.38 73 -20.76 73 -16 73 C-16 71.35 -16 69.7 -16 68 C-20.62 68 -25.24 68 -30 68 C-30 66.02 -30 64.04 -30 62 C-25.38 62 -20.76 62 -16 62 C-16 60.35 -16 58.7 -16 57 C-20.62 57 -25.24 57 -30 57 C-30 55.35 -30 53.7 -30 52 C-25.38 52 -20.76 52 -16 52 C-16 50.02 -16 48.04 -16 46 C-20.62 46 -25.24 46 -30 46 C-30 44.35 -30 42.7 -30 41 C-25.38 41 -20.76 41 -16 41 C-16 39.02 -16 37.04 -16 35 C-20.62 35 -25.24 35 -30 35 C-30 33.35 -30 31.7 -30 30 C-25.38 30 -20.76 30 -16 30 C-16.0825 28.1025 -16.165 26.205 -16.25 24.25 C-16.41020363 20.56531658 -16.47563909 18.69516482 -14.375 15.625 C-9.97542369 12.61476358 -5.1659379 13.775394 0 14 C0 9.38 0 4.76 0 0 Z M2 2 C2 6.29 2 10.58 2 15 C0.453125 14.938125 -1.09375 14.87625 -2.6875 14.8125 C-6.9671446 14.81855325 -9.66671336 15.08337419 -13 18 C-14.98249375 21.16089913 -15.22227524 23.55354082 -15.125 27.25 C-15.08375 28.8175 -15.0425 30.385 -15 32 C-19.29 32 -23.58 32 -28 32 C-28 32.33 -28 32.66 -28 33 C-23.71 33 -19.42 33 -15 33 C-15 35.97 -15 38.94 -15 42 C-19.29 42 -23.58 42 -28 42 C-28 42.66 -28 43.32 -28 44 C-23.71 44 -19.42 44 -15 44 C-15 46.97 -15 49.94 -15 53 C-19.29 53 -23.58 53 -28 53 C-28 53.66 -28 54.32 -28 55 C-23.71 55 -19.42 55 -15 55 C-15 57.97 -15 60.94 -15 64 C-19.29 64 -23.58 64 -28 64 C-28 64.66 -28 65.32 -28 66 C-23.71 66 -19.42 66 -15 66 C-15 68.97 -15 71.94 -15 75 C-19.29 75 -23.58 75 -28 75 C-28 75.66 -28 76.32 -28 77 C-23.71 77 -19.42 77 -15 77 C-15 79.97 -15 82.94 -15 86 C-19.29 86 -23.58 86 -28 86 C-28 86.66 -28 87.32 -28 88 C-23.71 88 -19.42 88 -15 88 C-15 90.97 -15 93.94 -15 97 C-19.29 97 -23.58 97 -28 97 C-28 97.33 -28 97.66 -28 98 C-23.71 98 -19.42 98 -15 98 C-15.061875 99.546875 -15.12375 101.09375 -15.1875 102.6875 C-15.18144675 106.9671446 -14.91662581 109.66671336 -12 113 C-8.83910087 114.98249375 -6.44645918 115.22227524 -2.75 115.125 C-1.1825 115.08375 0.385 115.0425 2 115 C2 119.29 2 123.58 2 128 C2.33 128 2.66 128 3 128 C3 123.71 3 119.42 3 115 C5.97 115 8.94 115 12 115 C12 119.29 12 123.58 12 128 C12.66 128 13.32 128 14 128 C14 123.71 14 119.42 14 115 C16.97 115 19.94 115 23 115 C23 119.29 23 123.58 23 128 C23.66 128 24.32 128 25 128 C25 123.71 25 119.42 25 115 C27.97 115 30.94 115 34 115 C34 119.29 34 123.58 34 128 C34.66 128 35.32 128 36 128 C36 123.71 36 119.42 36 115 C38.97 115 41.94 115 45 115 C45 119.29 45 123.58 45 128 C45.66 128 46.32 128 47 128 C47 123.71 47 119.42 47 115 C49.97 115 52.94 115 56 115 C56 119.29 56 123.58 56 128 C56.66 128 57.32 128 58 128 C58 123.71 58 119.42 58 115 C60.97 115 63.94 115 67 115 C67 119.29 67 123.58 67 128 C67.33 128 67.66 128 68 128 C68 123.71 68 119.42 68 115 C69.546875 115.061875 71.09375 115.12375 72.6875 115.1875 C76.9671446 115.18144675 79.66671336 114.91662581 83 112 C84.98249375 108.83910087 85.22227524 106.44645918 85.125 102.75 C85.08375 101.1825 85.0425 99.615 85 98 C89.29 98 93.58 98 98 98 C98 97.67 98 97.34 98 97 C93.71 97 89.42 97 85 97 C85 94.03 85 91.06 85 88 C89.29 88 93.58 88 98 88 C98 87.34 98 86.68 98 86 C93.71 86 89.42 86 85 86 C85 83.03 85 80.06 85 77 C89.29 77 93.58 77 98 77 C98 76.34 98 75.68 98 75 C93.71 75 89.42 75 85 75 C85 72.03 85 69.06 85 66 C89.29 66 93.58 66 98 66 C98 65.34 98 64.68 98 64 C93.71 64 89.42 64 85 64 C85 61.03 85 58.06 85 55 C89.29 55 93.58 55 98 55 C98 54.34 98 53.68 98 53 C93.71 53 89.42 53 85 53 C85 50.03 85 47.06 85 44 C89.29 44 93.58 44 98 44 C98 43.34 98 42.68 98 42 C93.71 42 89.42 42 85 42 C85 39.03 85 36.06 85 33 C89.29 33 93.58 33 98 33 C98 32.67 98 32.34 98 32 C93.71 32 89.42 32 85 32 C85.061875 30.453125 85.12375 28.90625 85.1875 27.3125 C85.18144675 23.0328554 84.91662581 20.33328664 82 17 C78.83910087 15.01750625 76.44645918 14.77772476 72.75 14.875 C71.1825 14.91625 69.615 14.9575 68 15 C68 10.71 68 6.42 68 2 C67.67 2 67.34 2 67 2 C67 6.29 67 10.58 67 15 C64.03 15 61.06 15 58 15 C58 10.71 58 6.42 58 2 C57.34 2 56.68 2 56 2 C56 6.29 56 10.58 56 15 C53.03 15 50.06 15 47 15 C47 10.71 47 6.42 47 2 C46.34 2 45.68 2 45 2 C45 6.29 45 10.58 45 15 C42.03 15 39.06 15 36 15 C36 10.71 36 6.42 36 2 C35.34 2 34.68 2 34 2 C34 6.29 34 10.58 34 15 C31.03 15 28.06 15 25 15 C25 10.71 25 6.42 25 2 C24.34 2 23.68 2 23 2 C23 6.29 23 10.58 23 15 C20.03 15 17.06 15 14 15 C14 10.71 14 6.42 14 2 C13.34 2 12.68 2 12 2 C12 6.29 12 10.58 12 15 C9.03 15 6.06 15 3 15 C3 10.71 3 6.42 3 2 C2.67 2 2.34 2 2 2 Z " fill="#000000" transform="translate(30,0)"/>
<path d="M0 0 C27.06 0 54.12 0 82 0 C82 27.06 82 54.12 82 82 C54.94 82 27.88 82 0 82 C0 54.94 0 27.88 0 0 Z M2 2 C2 5.3 2 8.6 2 12 C7.28 12 12.56 12 18 12 C18.33 11.01 18.66 10.02 19 9 C21.64 8.67 24.28 8.34 27 8 C27.09765625 14.15234375 27.09765625 14.15234375 27 16 C26 17 26 17 23.0625 17.25 C22.051875 17.1675 21.04125 17.085 20 17 C19.34 16.01 18.68 15.02 18 14 C15.2114711 13.77892213 12.65346819 13.71892465 9.875 13.8125 C9.12089844 13.82603516 8.36679687 13.83957031 7.58984375 13.85351562 C5.72625873 13.88890015 3.86304022 13.94270833 2 14 C2 15.98 2 17.96 2 20 C6.29 20 10.58 20 15 20 C15 20.99 15 21.98 15 23 C10.71 23 6.42 23 2 23 C2 27.62 2 32.24 2 37 C6.91123589 37.09898615 11.82188938 37.17152247 16.73388672 37.21972656 C18.40423702 37.23982393 20.07451713 37.26710683 21.74462891 37.30175781 C24.1476372 37.35036119 26.54971434 37.37298656 28.953125 37.390625 C29.69806213 37.41127014 30.44299927 37.43191528 31.21051025 37.45318604 C34.73153556 37.45470481 36.63102403 37.2808226 39.47192383 35.11865234 C41.25180858 32.65087157 41.51311314 31.38944385 41.4375 28.375 C41.43621094 27.59898438 41.43492188 26.82296875 41.43359375 26.0234375 C41.16105903 23.60372744 41.16105903 23.60372744 38 22 C37.75 18.9375 37.75 18.9375 38 16 C39 15 39 15 42.5625 14.9375 C43.696875 14.958125 44.83125 14.97875 46 15 C46.6875 17.8125 46.6875 17.8125 47 21 C46.53078125 21.43699219 46.0615625 21.87398437 45.578125 22.32421875 C42.80055241 25.27367083 43.13783091 29.29344801 42.72265625 33.1875 C42 36 42 36 40.47143555 37.64379883 C36.97614865 39.56183881 33.62551715 39.47929342 29.734375 39.51171875 C28.54427826 39.53864555 28.54427826 39.53864555 27.33013916 39.56611633 C24.80347969 39.62016926 22.27700856 39.65409812 19.75 39.6875 C18.03382799 39.7206776 16.31768081 39.75516767 14.6015625 39.79101562 C10.40117768 39.87589255 6.20084823 39.94272721 2 40 C2 42.64 2 45.28 2 48 C7.35682133 48.0741205 12.71334462 48.12858776 18.07055664 48.16479492 C19.89320067 48.1798876 21.71580836 48.20036395 23.53833008 48.22631836 C26.157155 48.26268103 28.77550007 48.27972124 31.39453125 48.29296875 C32.21025101 48.30845261 33.02597076 48.32393646 33.8664093 48.33988953 C38.09637379 48.524901 38.09637379 48.524901 41.57914734 46.50215149 C42.04802872 46.0064415 42.5169101 45.51073151 43 45 C45.5625 44.625 45.5625 44.625 48 45 C50 48 50 48 49.6875 50.625 C49 53 49 53 48 54 C45.0625 54.25 45.0625 54.25 42 54 C41.34 53.01 40.68 52.02 40 51 C37.09165115 50.73339817 34.39861732 50.65220876 31.4921875 50.70703125 C30.23125778 50.71339851 30.23125778 50.71339851 28.94485474 50.71989441 C26.25458007 50.73671468 23.56504901 50.77437219 20.875 50.8125 C19.05339622 50.82754255 17.23178072 50.8412317 15.41015625 50.85351562 C10.93981676 50.88662906 6.47003454 50.93843363 2 51 C2 52.65 2 54.3 2 56 C2.86278564 56.01458252 3.72557129 56.02916504 4.61450195 56.04418945 C7.81849647 56.10527754 11.02184625 56.17943549 14.2253418 56.26245117 C15.61129377 56.29568549 16.99738061 56.32372226 18.38354492 56.34643555 C20.37706843 56.38000617 22.37021741 56.43388 24.36328125 56.48828125 C25.56251221 56.51446533 26.76174316 56.54064941 27.99731445 56.56762695 C31 57 31 57 32.8828125 58.24023438 C34.30931494 60.4872251 34.42719102 62.01379797 34.51171875 64.66796875 C34.54716797 65.56064453 34.58261719 66.45332031 34.61914062 67.37304688 C34.65297852 68.76620117 34.65297852 68.76620117 34.6875 70.1875 C34.72166016 71.12787109 34.75582031 72.06824219 34.79101562 73.03710938 C34.87347151 75.3576536 34.93841303 77.67880817 35 80 C40.61 80 46.22 80 52 80 C52 76.04 52 72.08 52 68 C52.66 68 53.32 68 54 68 C54 71.96 54 75.92 54 80 C55.65 80 57.3 80 59 80 C59.08075665 77.70890403 59.13907731 75.41700733 59.1875 73.125 C59.22230469 71.84882812 59.25710937 70.57265625 59.29296875 69.2578125 C59.14794922 67.64519531 59.14794922 67.64519531 59 66 C58.01 65.34 57.02 64.68 56 64 C55.75 60.9375 55.75 60.9375 56 58 C57 57 57 57 60.5625 56.9375 C61.696875 56.958125 62.83125 56.97875 64 57 C64.6875 59.8125 64.6875 59.8125 65 63 C64.5153125 63.4125 64.030625 63.825 63.53125 64.25 C61.11595313 67.01033929 61.71421791 69.61658414 61.8125 73.1875 C61.83957031 74.45980469 61.86664063 75.73210937 61.89453125 77.04296875 C61.92933594 78.01878906 61.96414062 78.99460937 62 80 C63.32 80 64.64 80 66 80 C66 77.03 66 74.06 66 71 C66.99 71 67.98 71 69 71 C69 73.97 69 76.94 69 80 C72.63 80 76.26 80 80 80 C80 62.84 80 45.68 80 28 C74.72 28 69.44 28 64 28 C63.34 28.99 62.68 29.98 62 31 C58.9375 31.25 58.9375 31.25 56 31 C55 30 55 30 54.875 26.5 C55 23 55 23 56 22 C58.9375 21.75 58.9375 21.75 62 22 C62.66 22.99 63.32 23.98 64 25 C66.7885289 25.22107787 69.34653181 25.28107535 72.125 25.1875 C72.87910156 25.17396484 73.63320312 25.16042969 74.41015625 25.14648438 C76.27374127 25.11109985 78.13695978 25.05729167 80 25 C80 22.03 80 19.06 80 16 C75.71 16 71.42 16 67 16 C67 15.01 67 14.02 67 13 C71.29 13 75.58 13 80 13 C80 9.37 80 5.74 80 2 C54.26 2 28.52 2 2 2 Z M20.375 10.5 C19.92125 10.995 19.4675 11.49 19 12 C19.66 13.32 20.32 14.64 21 16 C22.32 16 23.64 16 25 16 C25.66 14.68 26.32 13.36 27 12 C25.62514468 10.45833358 25.62514468 10.45833358 24 9 C21.87635519 8.77390663 21.87635519 8.77390663 20.375 10.5 Z M42 47 C42 48.65 42 50.3 42 52 C44.39719432 52.67958603 44.39719432 52.67958603 47 53 C47.66 52.34 48.32 51.68 49 51 C48.6814823 48.89179203 48.6814823 48.89179203 48 47 C44.95086772 45.98888907 44.95086772 45.98888907 42 47 Z M60 57 C59.01 57.66 58.02 58.32 57 59 C57.33 60.65 57.66 62.3 58 64 C58.99 64.33 59.98 64.66 61 65 C61.99 64.34 62.98 63.68 64 63 C63.67 61.35 63.34 59.7 63 58 C62.01 57.67 61.02 57.34 60 57 Z M2 59 C2 60.65 2 62.3 2 64 C5.37464024 64.2503577 5.37464024 64.2503577 9 64 C10.62514468 62.54166642 10.62514468 62.54166642 12 61 C14.5625 60.6875 14.5625 60.6875 17 61 C17.66 61.66 18.32 62.32 19 63 C18.625 66.625 18.625 66.625 18 70 C15.36 70 12.72 70 10 70 C9.67 69.01 9.34 68.02 9 67 C6.69 67 4.38 67 2 67 C2 71.29 2 75.58 2 80 C12.23 80 22.46 80 33 80 C33.061875 77.463125 33.12375 74.92625 33.1875 72.3125 C33.21481201 71.52270752 33.24212402 70.73291504 33.27026367 69.91918945 C33.32408861 65.34175456 32.92341402 62.54206181 30 59 C27.00941675 58.30929068 27.00941675 58.30929068 23.58203125 58.51171875 C22.32841797 58.52783203 21.07480469 58.54394531 19.78320312 58.56054688 C17.81770508 58.62338867 17.81770508 58.62338867 15.8125 58.6875 C14.47725471 58.71258339 13.14196471 58.73539652 11.80664062 58.75585938 C8.53663293 58.81488478 5.26887667 58.89718524 2 59 Z " fill="#979797" transform="translate(24,24)"/>
<path d="M0 0 C28.38 0 56.76 0 86 0 C86 28.38 86 56.76 86 86 C57.62 86 29.24 86 0 86 C0 57.62 0 29.24 0 0 Z M1 1 C1 28.72 1 56.44 1 85 C28.72 85 56.44 85 85 85 C85 57.28 85 29.56 85 1 C57.28 1 29.56 1 1 1 Z " fill="#979797" transform="translate(22,22)"/>
<path d="M0 0 C0.66 0 1.32 0 2 0 C2 6.6 2 13.2 2 20 C7.61 20 13.22 20 19 20 C19 16.04 19 12.08 19 8 C19.66 8 20.32 8 21 8 C21.19393875 10.14526099 21.37998676 12.29123677 21.5625 14.4375 C21.71912109 16.22994141 21.71912109 16.22994141 21.87890625 18.05859375 C21.93884766 19.51458984 21.93884766 19.51458984 22 21 C21 22 21 22 18.82969666 22.12025452 C17.87261307 22.11803391 16.91552948 22.11581329 15.92944336 22.11352539 C14.84839828 22.11344986 13.76735321 22.11337433 12.65354919 22.11329651 C10.889515 22.10555458 10.889515 22.10555458 9.08984375 22.09765625 C7.89267227 22.0962413 6.69550079 22.09482635 5.46205139 22.09336853 C1.62050934 22.08774979 -2.22097543 22.07519411 -6.0625 22.0625 C-8.65950437 22.05748741 -11.25650965 22.05292409 -13.85351562 22.04882812 C-20.23569932 22.03777427 -26.61783993 22.02049708 -33 22 C-33 17.05 -33 12.1 -33 7 C-32.34 7 -31.68 7 -31 7 C-31 11.29 -31 15.58 -31 20 C-20.77 20 -10.54 20 0 20 C0 13.4 0 6.8 0 0 Z " fill="#A2A2A2" transform="translate(57,84)"/>
<path d="M0 0 C1.7325 0.1546875 1.7325 0.1546875 3.5 0.3125 C5.5 3.3125 5.5 3.3125 5.125 6.5 C4.91875 7.428125 4.7125 8.35625 4.5 9.3125 C3.51 9.6425 2.52 9.9725 1.5 10.3125 C1.53480469 10.90417969 1.56960937 11.49585938 1.60546875 12.10546875 C1.77177186 16.95993558 1.85682384 20.45836893 -1.5 24.3125 C-2.49 24.3125 -3.48 24.3125 -4.5 24.3125 C-4.83 23.6525 -5.16 22.9925 -5.5 22.3125 C-5.01917969 21.91417969 -4.53835937 21.51585938 -4.04296875 21.10546875 C-2.12608175 18.87799753 -2.02258357 17.52415331 -1.8125 14.625 C-1.71388672 13.41263672 -1.71388672 13.41263672 -1.61328125 12.17578125 C-1.57589844 11.56089844 -1.53851563 10.94601563 -1.5 10.3125 C-2.82 9.6525 -4.14 8.9925 -5.5 8.3125 C-5.625 5.4375 -5.625 5.4375 -5.5 2.3125 C-3.5 0.3125 -3.5 0.3125 0 0 Z " fill="#CACACA" transform="translate(66.5,37.6875)"/>
<path d="M0 0 C1.875 1.6875 1.875 1.6875 3 4 C2.75925978 7.37036311 2.41201979 8.58798021 0 11 C-3.125 11.125 -3.125 11.125 -6 11 C-6.66 9.68 -7.32 8.36 -8 7 C-20.54 7 -33.08 7 -46 7 C-46 6.01 -46 5.02 -46 4 C-33.46 4 -20.92 4 -8 4 C-7.67 3.01 -7.34 2.02 -7 1 C-4.4254716 -0.2872642 -2.85291355 -0.34791629 0 0 Z M-6 3 C-6 4.65 -6 6.3 -6 8 C-3.60280568 8.67958603 -3.60280568 8.67958603 -1 9 C-0.34 8.34 0.32 7.68 1 7 C0.6814823 4.89179203 0.6814823 4.89179203 0 3 C-3.04913228 1.98888907 -3.04913228 1.98888907 -6 3 Z " fill="#5A5A5A" transform="translate(72,68)"/>
<path d="M0 0 C3 0.25 3 0.25 5 2.25 C5 3.24 5 4.23 5 5.25 C10.61 5.25 16.22 5.25 22 5.25 C22 5.58 22 5.91 22 6.25 C16.06 6.25 10.12 6.25 4 6.25 C3.67 7.9 3.34 9.55 3 11.25 C0.125 11.375 0.125 11.375 -3 11.25 C-5 9.25 -5 9.25 -5.25 5.75 C-4.93427155 1.32980166 -4.46370491 0.37197541 0 0 Z " fill="#CBCBCB" transform="translate(83,44.75)"/>
<path d="M0 0 C2.72705554 -0.22111261 4.46420662 -0.30361625 6.875 1.0625 C8.66310335 4.14201133 7.74592606 6.64333273 7 10 C6 11 6 11 3.0625 11.125 C0 11 0 11 -2 10 C-2 8.68 -2 7.36 -2 6 C-4.97 6 -7.94 6 -11 6 C-11 5.67 -11 5.34 -11 5 C-10.37351562 4.97421875 -9.74703125 4.9484375 -9.1015625 4.921875 C-8.28429687 4.86515625 -7.46703125 4.8084375 -6.625 4.75 C-5.81289063 4.70359375 -5.00078125 4.6571875 -4.1640625 4.609375 C-1.81161073 4.2077908 -1.81161073 4.2077908 -0.7109375 1.953125 C-0.47632813 1.30859375 -0.24171875 0.6640625 0 0 Z " fill="#C9C9C9" transform="translate(36,84)"/>
<path d="M0 0 C1.38125018 2.76250036 1.19079306 4.94731099 1 8 C-1 10 -1 10 -4.125 10.125 C-5.07375 10.08375 -6.0225 10.0425 -7 10 C-7.66 8.68 -8.32 7.36 -9 6 C-14.61 6 -20.22 6 -26 6 C-26 5.34 -26 4.68 -26 4 C-20.39 4 -14.78 4 -9 4 C-8.67 2.68 -8.34 1.36 -8 0 C-4.69693408 -1.10102197 -3.28414305 -0.95067299 0 0 Z M-6.625 2.5 C-7.07875 2.995 -7.5325 3.49 -8 4 C-7.34 5.32 -6.68 6.64 -6 8 C-4.68 8 -3.36 8 -2 8 C-1.34 6.68 -0.68 5.36 0 4 C-1.37485532 2.45833358 -1.37485532 2.45833358 -3 1 C-5.12364481 0.77390663 -5.12364481 0.77390663 -6.625 2.5 Z " fill="#A6A6A6" transform="translate(51,32)"/>
<path d="M0 0 C1.7325 0.1546875 1.7325 0.1546875 3.5 0.3125 C5.5 3.3125 5.5 3.3125 5.125 6.5 C4.91875 7.428125 4.7125 8.35625 4.5 9.3125 C3.18 9.6425 1.86 9.9725 0.5 10.3125 C0.5 15.2625 0.5 20.2125 0.5 25.3125 C0.17 25.3125 -0.16 25.3125 -0.5 25.3125 C-0.5 20.3625 -0.5 15.4125 -0.5 10.3125 C-1.82 9.9825 -3.14 9.6525 -4.5 9.3125 C-5.5 8.3125 -5.5 8.3125 -5.6875 5.375 C-5.41118678 0.86188401 -4.44803264 0.39714577 0 0 Z M-0.5 1.3125 C-1.49 1.9725 -2.48 2.6325 -3.5 3.3125 C-3.17 4.9625 -2.84 6.6125 -2.5 8.3125 C-1.51 8.6425 -0.52 8.9725 0.5 9.3125 C1.49 8.6525 2.48 7.9925 3.5 7.3125 C3.17 5.6625 2.84 4.0125 2.5 2.3125 C1.51 1.9825 0.52 1.6525 -0.5 1.3125 Z " fill="#B7B7B7" transform="translate(84.5,79.6875)"/>
<path d="M0 0 C0.99 0.33 1.98 0.66 3 1 C2.34 1 1.68 1 1 1 C1.03480469 1.59167969 1.06960937 2.18335938 1.10546875 2.79296875 C1.27177186 7.64743558 1.35682384 11.14586893 -2 15 C-2.99 15 -3.98 15 -5 15 C-5.33 14.34 -5.66 13.68 -6 13 C-5.51660156 12.60039063 -5.03320312 12.20078125 -4.53515625 11.7890625 C-2.62224292 9.55976402 -2.5838037 8.27275717 -2.4375 5.375 C-2.30859375 2.9609375 -2.30859375 2.9609375 -2 1 C-1.34 0.67 -0.68 0.34 0 0 Z " fill="#6A6A6A" transform="translate(67,47)"/>
<path d="M0 0 C1.32 0.33 2.64 0.66 4 1 C4.625 3.8125 4.625 3.8125 5 7 C4.01 8.485 4.01 8.485 3 10 C2.01 9.67 1.02 9.34 0 9 C0.66 8.34 1.32 7.68 2 7 C2 5.68 2 4.36 2 3 C1.34 2.67 0.68 2.34 0 2 C0 1.34 0 0.68 0 0 Z " fill="#979797" transform="translate(85,80)"/>
</svg>
